Wanderlust.2012.720p.BRRIP.XVID.AC3-26k
 
http://www.imdb.com/title/tt1655460/

Plot:

Rattled by sudden unemployment, a Manhattan couple surveys alternative living options, ultimately deciding to experiment with living on a rural commune where free love rules

Sources - BLURAY THNXS

General
Complete name: Wanderlust 720p BRRIP XVID AC3 - 26k.avi
Format: AVI
Format/Info: Audio Video Interleave
Format profile: OpenDML
Format settings: rec
File size: 2.50 GiB
Duration: 1h 38mn
Overall bit rate: 3 643 Kbps

Video
ID: 0
Format: MPEG-4 Visual
Format profile: Advanced Simple@L5
Format settings, BVOP: 2
Format settings, QPel: No
Format settings, GMC: No warppoints
Format settings, Matrix: Default (H.263)
Codec ID: XVID
Codec ID/Hint: XviD
Duration: 1h 38mn
Bit rate: 2 997 Kbps
Width: 1 280 pixels
Height: 688 pixels
Display aspect ratio: 1.85:1
Frame rate: 23.976 fps
Color space: YUV
Chroma subsampling: 4:2:0
Bit depth: 8 bits
Scan type: Progressive
Compression mode: Lossy
Bits/(Pixel*Frame): 0.142
Stream size: 2.05 GiB (82%)

Audio
ID: 1
Format: AC-3
Format/Info: Audio Coding 3
Mode extension: CM (complete main)
Format settings, Endianness: Big
Codec ID: 2000
Duration: 1h 38mn
Bit rate mode: Constant
Bit rate: 640 Kbps
Channel(s): 6 channels
Channel positions: Front: L C R, Side: L R, LFE
Sampling rate: 48.0 KHz
Bit depth: 16 bits
Compression mode: Lossy
Stream size: 449 MiB (18%)
Alignment: Aligned on interleaves
Interleave, duration: 64 ms (1.53 video frames)
Interleave, preload duration: 192 ms

Notes

ENJOY 

Greetz:
Xtreme Encode|FYA|ILLUMANTI|CM8|RX|VISION|HDSCENE|xTriLL|DTRG|CRYS|REMIXHD|BIDA|RX|REFILL|INSPiRAL|SIC|HOPE|Anonymous|GooN|NOIR|Blackjesus|Gabroo Punjab Deh|

To all the people who have helped me you know who you are

Anything to offer email us @: 26k@hushmail.me.